<?xml version="1.0" encoding="UTF-8" standalone="no"?>
<!-- Created with Inkscape (http://www.inkscape.org/) -->

<svg
   width="512"
   height="512"
   viewBox="0 0 512 512"
   version="1.1"
   id="svg1"
   inkscape:version="1.3.2 (091e20e, 2023-11-25, custom)"
   sodipodi:docname="Pickleball Pals Logo.svg"
   xml:space="preserve"
   inkscape:export-filename="Pickleball Pals Logo - White.png"
   inkscape:export-xdpi="96"
   inkscape:export-ydpi="96"
   xmlns:inkscape="http://www.inkscape.org/namespaces/inkscape"
   xmlns:sodipodi="http://sodipodi.sourceforge.net/DTD/sodipodi-0.dtd"
   xmlns:xlink="http://www.w3.org/1999/xlink"
   xmlns="http://www.w3.org/2000/svg"
   xmlns:svg="http://www.w3.org/2000/svg"><sodipodi:namedview
     id="namedview1"
     pagecolor="#ff0000"
     bordercolor="#999999"
     borderopacity="1"
     inkscape:showpageshadow="2"
     inkscape:pageopacity="0"
     inkscape:pagecheckerboard="0"
     inkscape:deskcolor="#d1d1d1"
     inkscape:document-units="px"
     inkscape:zoom="1.6130873"
     inkscape:cx="478.58538"
     inkscape:cy="273.3888"
     inkscape:window-width="2560"
     inkscape:window-height="1362"
     inkscape:window-x="2552"
     inkscape:window-y="-8"
     inkscape:window-maximized="1"
     inkscape:current-layer="layer1" /><defs
     id="defs1"><clipPath
       clipPathUnits="userSpaceOnUse"
       id="clipPath7"><ellipse
         style="fill:#ffffff;fill-opacity:1;stroke:#000000;stroke-width:2.04704;stroke-dasharray:none;stroke-opacity:1"
         id="ellipse7"
         cx="256.96063"
         cy="255.10086"
         rx="187.50507"
         ry="188.125" /></clipPath></defs><g
     inkscape:label="Layer 1"
     inkscape:groupmode="layer"
     id="layer1"
     style="display:inline"><path
       id="path1"
       style="display:inline;fill:none;fill-opacity:1;fill-rule:evenodd;stroke:#ffffff;stroke-width:4;stroke-dasharray:none;stroke-opacity:1"
       d="M 256.33984,3.3808594 A 252.34071,252.03076 0 0 0 4,255.41016 252.34071,252.03076 0 0 0 256.33984,507.44141 252.34071,252.03076 0 0 0 508.68164,255.41016 252.34071,252.03076 0 0 0 256.33984,3.3808594 Z m 0,66.7460936 C 353.5594,70.126534 441.93498,158.4388 441.93555,255.41016 441.93574,352.38199 353.55987,440.69573 256.33984,440.69531 159.12029,440.69498 70.745905,352.38151 70.746094,255.41016 70.746656,158.43928 159.12077,70.127288 256.33984,70.126953 Z"
       inkscape:label="Ring" /><circle
       style="display:inline;fill:#ffff00;fill-opacity:1;stroke:#000000;stroke-width:4.21446;stroke-dasharray:none;stroke-opacity:1"
       id="path3"
       cx="875.95996"
       cy="252.31117"
       r="198.89005"
       inkscape:label="Top Text Circle" /><text
       xml:space="preserve"
       style="font-style:normal;font-variant:normal;font-weight:normal;font-stretch:normal;font-size:53.3333px;line-height:1.25;font-family:Arial;-inkscape-font-specification:Arial;letter-spacing:12px;fill:#ffffff;fill-opacity:1;stroke:none;stroke-width:0;stroke-dasharray:none"
       id="text5"
       transform="rotate(175.30777,565.78614,240.88841)"
       inkscape:label="&quot;Pickleball Pals&quot;"><textPath
         xlink:href="#path3"
         id="textPath5"><tspan
           id="tspan5"
           style="font-style:normal;font-variant:normal;font-weight:bold;font-stretch:normal;font-size:53.3333px;font-family:Arial;-inkscape-font-specification:'Arial Bold';letter-spacing:12px;writing-mode:lr-tb;stroke:#000000;stroke-width:0;stroke-dasharray:none;stroke-opacity:1;fill:#ffffff">PICKLEBALL PALS</tspan></textPath></text><circle
       style="fill:#ffff00;fill-opacity:1;stroke:#000000;stroke-width:2;stroke-dasharray:none;stroke-opacity:1"
       id="path5"
       cx="619.92926"
       cy="-828.53107"
       r="238.05283"
       transform="scale(1,-1)"
       inkscape:label="Bottom Text Circle" /><text
       xml:space="preserve"
       style="font-style:normal;font-variant:normal;font-weight:bold;font-stretch:normal;font-size:53.3333px;line-height:1.25;font-family:Arial;-inkscape-font-specification:'Arial Bold';letter-spacing:12px;fill:#ffffff"
       id="text6"
       transform="rotate(152.58397,507.20063,497.41881)"
       inkscape:label="&quot;Society&quot;"><textPath
         xlink:href="#path5"
         id="textPath6"
         style="font-size:53.3333px;letter-spacing:12px;display:inline;fill:#ffffff">    <tspan
   style="font-size:56px;letter-spacing:12px;fill:#ffffff"
   id="tspan1">SOCIETY</tspan></textPath></text><g
       inkscape:label="Paddles"
       id="layer1-3"
       transform="matrix(1.2669072,0,0,1.2669072,107.98008,67.103179)"><path
         style="fill:#ffffff;fill-opacity:1"
         d="m 157.8591,274.76466 c -0.26194,-0.068 -0.84773,-0.30665 -1.30175,-0.53023 -1.73489,-0.85433 -3.05741,-2.05009 -3.66425,-3.31302 -0.45477,-0.94645 -0.38912,-1.8843 0.16855,-2.40779 0.35917,-0.33716 4.33751,-2.7815 10.7982,-6.63457 4.84857,-2.89162 4.82183,-2.87682 5.19755,-2.87682 0.75662,0 1.49339,0.70695 2.19803,2.10907 0.97514,1.94038 1.46032,4.55973 1.05623,5.70232 -0.16885,0.47742 -0.6087,1.04724 -1.45946,1.8907 -1.86381,1.84779 -5.03124,3.84971 -8.13769,5.14328 -2.32708,0.96902 -3.67521,1.22365 -4.85541,0.91706 z m -12.84081,-20.45754 c -3.86415,-6.64537 -8.68068,-14.96857 -10.70339,-18.496 -2.02271,-3.52742 -4.6795,-8.16123 -5.90399,-10.29735 l -2.22633,-3.88386 0.86713,-0.53942 c 3.32958,-2.07122 15.33517,-8.81514 15.50545,-8.7099 0.2207,0.1364 1.70072,2.57124 3.82065,6.28553 3.31212,5.80308 6.89024,12.2811 16.64266,30.13075 2.18487,3.99891 4.05997,7.42791 4.16691,7.62 0.10693,0.19209 0.19493,0.38027 0.19557,0.41818 0.002,0.14252 -3.2555,2.20958 -9.71435,6.16356 -4.75443,2.91056 -5.41304,3.3102 -5.52691,3.3537 -0.0753,0.0288 -1.70913,-2.73401 -7.1234,-12.04519 z m -20.57698,-34.82211 c -0.55732,-0.17134 -1.16797,-0.5768 -2.34624,-1.55782 -0.41782,-0.34787 -0.8568,-0.69539 -0.97553,-0.77228 -0.20249,-0.13112 -0.21592,-0.1616 -0.21665,-0.49169 l -7.9e-4,-0.35191 2.71462,-1.51873 c 1.49305,-0.8353 4.3434,-2.42999 6.33413,-3.54375 4.17808,-2.33754 6.29499,-3.52174 8.69688,-4.86505 0.94153,-0.52657 1.72955,-0.95741 1.75115,-0.95741 0.0216,0 0.0726,0.1786 0.11342,0.39688 0.0408,0.21828 0.23226,0.89693 0.42549,1.50812 0.71243,2.25337 0.68376,2.8487 -0.16089,3.34096 -0.1917,0.11173 -2.77743,1.58806 -5.74605,3.28074 -2.96863,1.69269 -6.29761,3.59972 -7.39775,4.23786 -1.10014,0.63814 -2.11455,1.21266 -2.25425,1.2767 -0.30217,0.13854 -0.52975,0.14276 -0.93754,0.0174 z m -5.37686,-4.72706 c -0.53804,-0.073 -1.0669,-0.23689 -2.4486,-0.7586 -1.20557,-0.45521 -1.85891,-0.62238 -4.318,-1.10486 -2.91118,-0.57119 -5.90796,-1.06945 -8.79475,-1.46228 -4.196131,-0.571 -6.296351,-0.71879 -12.2555,-0.86239 -5.777785,-0.13923 -7.981184,-0.2806 -10.938343,-0.70182 -6.395428,-0.91097 -11.795169,-3.27194 -16.557156,-7.23941 -3.572548,-2.97648 -6.706626,-6.83346 -10.265016,-12.63272 -1.134916,-1.84962 -1.888218,-3.1418 -6.626308,-11.3665 -12.256796,-21.27616 -13.270806,-23.01379 -17.175485,-29.43225 -2.216536,-3.64351 -3.652316,-6.07181 -4.71197,-7.96925 -4.9869,-8.92963 -7.344414,-15.74551 -7.89366,-22.8216 -0.0823,-1.06033 -0.08179,-4.10616 8.61e-4,-5.1568 0.541264,-6.8801 2.788064,-12.70898 6.912109,-17.932099 2.977698,-3.771268 7.271176,-7.484589 12.70847,-10.991236 3.26743,-2.107247 5.316178,-3.294524 13.30325,-7.709417 3.537789,-1.95553 5.403214,-3.029747 9.2075,-5.302199 7.210521,-4.307131 10.634461,-6.138606 14.446249,-7.727335 4.346215,-1.811474 8.668725,-2.939768 12.47775,-3.257033 1.541319,-0.128382 4.1523,-0.07047 5.841999,0.12958 6.131005,0.725867 12.53041,3.363053 17.82837,7.347051 3.65286,2.746911 6.4042,5.705933 9.22474,9.921089 1.97615,2.953241 3.45541,5.525508 6.79231,11.811 2.82227,5.316126 3.27017,6.108401 9.63885,17.049749 11.94468,20.52088 14.49936,25.00769 16.52299,29.0195 1.36953,2.71508 2.20089,4.59988 2.98197,6.76047 2.16709,5.99459 2.75858,11.58096 1.84035,17.38149 -0.29283,1.84987 -0.67852,3.41421 -1.34344,5.44904 -1.14431,3.50187 -2.64559,6.69615 -6.43144,13.68425 -2.16113,3.98913 -3.28016,6.25931 -4.61184,9.35609 -2.14076,4.97826 -3.26191,8.15768 -3.79899,10.77341 -0.49044,2.38857 -0.73153,3.24634 -1.13775,4.04797 -0.13066,0.25784 -0.26016,0.37815 -0.78088,0.72544 -0.77508,0.51693 -3.25399,2.01146 -6.55141,3.94984 -2.30657,1.35591 -10.05476,5.89439 -11.40833,6.6824 -0.64005,0.37262 -0.95919,0.43714 -1.6789,0.33943 z"
         id="path2" /><path
         style="fill:#ffffff;fill-opacity:1;stroke:#ffffff;stroke-width:5;stroke-dasharray:none;stroke-opacity:1"
         d="m 187.15846,233.37995 c -2.05616,-0.43902 -4.58227,-2.28872 -5.35426,-3.92057 -0.35944,-0.7598 -0.39535,-1.57505 -0.0973,-2.20923 0.15498,-0.32975 0.20981,-0.37806 0.98222,-0.8654 2.22025,-1.40085 10.66714,-6.49779 13.66387,-8.24492 1.49422,-0.87115 1.66498,-0.9208 2.24833,-0.65374 1.08041,0.49463 2.21302,2.55044 2.72668,4.94921 0.16464,0.76884 0.20555,2.37915 0.0715,2.8146 -0.31477,1.02264 -2.39501,3.0121 -4.71606,4.51026 -1.97087,1.27214 -4.32463,2.45222 -6.15339,3.08508 -1.53057,0.52967 -2.6005,0.69935 -3.37161,0.53471 z m 1.63069,-0.21927 c 4.15765,-0.85801 11.02256,-5.1527 12.31578,-7.70475 0.63296,-1.2491 -0.09,-4.67293 -1.40416,-6.64967 -0.35068,-0.52751 -0.9604,-1.10558 -1.27595,-1.20972 -0.47264,-0.15599 -0.64039,-0.0856 -2.72561,1.14441 -5.69673,3.36022 -13.24829,7.9531 -13.61253,8.27919 -0.32543,0.29134 -0.49828,0.98155 -0.39155,1.56351 0.3172,1.72968 2.87113,3.93218 5.30458,4.57465 0.57283,0.15124 1.06495,0.1519 1.78944,0.002 z m -14.82157,-20.2774 c -6.67997,-11.48757 -18.87662,-32.68525 -18.87662,-32.80742 0,-0.17047 5.08753,-3.14279 10.9855,-6.41811 4.03127,-2.23869 5.29887,-2.9226 5.41692,-2.9226 0.49951,0 5.50537,8.854 19.6202,34.70275 2.47922,4.54025 4.70303,8.60474 4.9418,9.03219 0.23877,0.42745 0.4188,0.81711 0.40007,0.86591 -0.0836,0.21792 -4.60595,3.06068 -13.16201,8.27373 -1.16532,0.71001 -2.16805,1.29092 -2.22829,1.29092 -0.0787,0 -2.07663,-3.38285 -7.09757,-12.01737 z m 8.02821,11.29803 c 2.11241,-1.27466 7.99079,-4.88416 10.08392,-6.19182 2.81375,-1.75787 4.09261,-2.59527 4.13596,-2.70824 0.0182,-0.0475 -0.17949,-0.46712 -0.43933,-0.93257 -0.25985,-0.46545 -2.02331,-3.68949 -3.91881,-7.16453 -12.17048,-22.31228 -17.9317,-32.62645 -19.85401,-35.54412 -0.25887,-0.39291 -0.49733,-0.71438 -0.52992,-0.71438 -0.0682,0 -3.60703,1.93673 -6.76239,3.70096 -5.23604,2.92757 -9.36625,5.35945 -9.36625,5.51485 0,0.12461 11.7704,20.59 18.62103,32.37669 7.32431,12.60168 7.08484,12.192 7.12638,12.192 0.0148,0 0.42138,-0.23798 0.90342,-0.52884 z M 153.26365,177.976 c -0.55527,-0.19981 -1.17801,-0.62668 -2.36369,-1.62024 -0.36671,-0.30729 -0.77515,-0.6307 -0.90764,-0.71868 -0.23938,-0.15896 -0.24077,-0.16236 -0.22225,-0.5443 l 0.0186,-0.38433 9.779,-5.47504 c 5.37845,-3.01127 9.80978,-5.47689 9.8474,-5.47915 0.0376,-0.002 0.1027,0.18206 0.14462,0.40959 0.0419,0.22753 0.20508,0.82046 0.36257,1.31762 0.6886,2.17385 0.75926,2.92153 0.32146,3.40149 -0.0743,0.0814 -0.89229,0.5789 -1.8178,1.10548 -4.2058,2.39295 -9.86147,5.62882 -11.71062,6.7002 -1.11478,0.64589 -2.14348,1.2273 -2.286,1.29203 -0.33034,0.15004 -0.74034,0.14839 -1.16569,-0.005 z m 2.84592,-1.15138 c 1.02885,-0.59732 4.32809,-2.4882 7.33164,-4.20195 6.90388,-3.93919 6.61934,-3.77194 6.74603,-3.9653 0.15354,-0.23433 0.17769,-0.87482 0.054,-1.431 -0.0573,-0.25737 -0.24293,-0.90906 -0.41261,-1.4482 -0.16968,-0.53915 -0.34522,-1.15172 -0.39009,-1.36127 -0.0449,-0.20955 -0.0888,-0.39073 -0.0977,-0.40262 -0.009,-0.0119 -1.13988,0.60732 -2.51335,1.37602 -2.47492,1.38516 -8.75011,4.89508 -14.10142,7.88738 l -2.77772,1.55322 3.8e-4,0.28575 c 3.3e-4,0.25219 0.0245,0.30141 0.20596,0.41907 0.11307,0.0733 0.55811,0.42368 0.98897,0.77859 1.49244,1.22935 2.12294,1.5962 2.74348,1.59629 0.34021,5e-5 0.41377,-0.0359 2.2225,-1.08598 z m -8.35286,-3.5755 c -0.57017,-0.12955 -0.93459,-0.24565 -1.80975,-0.57658 -1.49938,-0.56696 -1.8781,-0.67179 -3.90525,-1.08091 -5.61754,-1.13375 -11.52942,-1.9943 -15.46225,-2.25073 -1.33951,-0.0873 -3.8183,-0.17783 -7.0485,-0.25732 -5.34035,-0.13143 -7.84879,-0.30464 -10.668,-0.73665 -7.24144,-1.10968 -13.332829,-4.16917 -18.444549,-9.26403 -3.089509,-3.07932 -5.737753,-6.6892 -9.223668,-12.573 -0.455217,-0.76835 -3.35994,-5.79055 -6.45494,-11.16045 C 63.883948,116.51428 62.400638,113.9665 59.85054,109.77514 54.816178,101.50066 53.234566,98.740043 51.428482,95.074896 48.137261,88.395917 46.522639,83.054211 45.986995,77.072648 c -0.09934,-1.109314 -0.09802,-4.485997 0.0022,-5.588 0.678321,-7.460239 3.074831,-13.252512 7.802978,-18.8595 0.825983,-0.979512 3.321706,-3.471228 4.461318,-4.454154 4.309575,-3.717051 8.806005,-6.627611 18.4785,-11.961221 5.729776,-3.159516 6.687895,-3.706103 11.017249,-6.285114 4.014575,-2.391496 4.357629,-2.593323 5.9055,-3.474363 6.58478,-3.748018 11.67436,-5.882592 16.7005,-7.004194 4.09856,-0.91461 7.5047,-1.063627 11.46175,-0.501448 8.70007,1.236021 17.51478,6.219265 23.30717,13.176307 1.67625,2.013282 3.52644,4.715796 5.4081,7.899437 1.09568,1.853812 2.1372,3.753483 4.5259,8.255 2.64182,4.978498 3.26603,6.076515 11.19081,19.685 7.92211,13.603911 11.98804,20.707047 13.81234,24.129998 3.64528,6.839687 5.43396,12.005344 6.05761,17.494244 0.13475,1.18592 0.18615,4.36354 0.0916,5.66199 -0.36357,4.99241 -1.6067,9.22702 -4.43355,15.10252 -0.61549,1.27927 -1.58217,3.12915 -3.31829,6.35 -2.59057,4.80604 -3.60851,6.85632 -4.93031,9.93036 -1.42236,3.30789 -2.51791,6.15193 -3.18275,8.26239 -0.3244,1.02976 -0.45979,1.57212 -0.71329,2.8575 -0.37433,1.898 -0.69163,3.00501 -1.08663,3.79108 -0.16585,0.33004 -0.2452,0.40361 -0.89694,0.83153 -1.26166,0.82837 -4.02507,2.47249 -11.5735,6.88579 -2.68923,1.5723 -5.33241,3.12378 -5.87375,3.44773 l -0.98425,0.58901 -0.53975,0.0206 c -0.30644,0.0117 -0.70444,-0.0169 -0.92075,-0.066 z m 3.51744,-1.39417 c 1.20866,-0.71126 3.65488,-2.14411 5.43606,-3.18411 6.21687,-3.62991 9.43084,-5.54318 10.75667,-6.40341 l 0.78718,-0.51073 0.20324,-0.4479 c 0.40594,-0.89458 0.5764,-1.51216 1.04498,-3.7861 0.57585,-2.79451 1.63971,-5.81725 3.86479,-10.98105 1.37289,-3.1861 2.24839,-4.9496 4.90213,-9.87425 3.09717,-5.74755 4.336,-8.30611 5.49356,-11.3459 2.72515,-7.15634 3.08792,-14.10946 1.11115,-21.29674 -0.83866,-3.04925 -2.11596,-6.233927 -3.97161,-9.902364 -2.03372,-4.02045 -4.55168,-8.436488 -17.37926,-30.479998 -5.48311,-9.422418 -6.1102,-10.534993 -8.87614,-15.748 -4.01365,-7.564566 -5.92257,-10.753639 -8.43473,-14.091203 -3.456,-4.591511 -7.84377,-8.275024 -13.06046,-10.964218 -6.46803,-3.334255 -13.33853,-4.666192 -19.58975,-3.797735 -5.80737,0.806795 -11.46468,2.909871 -18.732494,6.963711 -2.003195,1.117342 -2.690328,1.518476 -6.985,4.077705 -4.358829,2.59746 -4.794845,2.845504 -12.445999,7.080392 -5.802756,3.211805 -9.496803,5.469859 -12.73175,7.782516 -9.480845,6.777839 -14.573061,14.207526 -16.12226,23.522832 -1.037766,6.240071 -0.4096,12.520939 1.917941,19.177 0.850444,2.432012 1.82219,4.704658 3.19104,7.462978 1.812929,3.653157 3.449935,6.518434 7.817165,13.682514 2.870722,4.7092 4.628489,7.72428 15.418799,26.44776 6.809888,11.81661 7.495741,12.98008 9.133077,15.49326 4.565552,7.00775 9.225594,11.46819 14.997984,14.35558 3.026987,1.51412 6.008697,2.45974 9.588497,3.04092 2.85047,0.46276 5.89339,0.68041 11.14425,0.79709 4.07707,0.0906 6.58707,0.20312 8.60425,0.38572 3.81958,0.34575 9.89479,1.29724 14.57325,2.28244 1.3979,0.29437 1.68415,0.3795 3.07975,0.91594 1.19235,0.45831 1.88409,0.63186 2.53319,0.63554 l 0.53293,0.003 z"
         id="path1-0" /></g></g></svg>
