<?xml version="1.0" encoding="UTF-8" standalone="no"?>
<!-- Created with Inkscape (http://www.inkscape.org/) -->

<svg
   width="210mm"
   height="297mm"
   viewBox="0 0 210 297"
   version="1.1"
   id="svg1"
   xml:space="preserve"
   inkscape:version="1.3.2 (091e20e, 2023-11-25, custom)"
   sodipodi:docname="Pickleball Pals Logo - Black and Rounded.svg"
   inkscape:export-filename="Pickleball Pals Logo - Black and Rounded.png"
   inkscape:export-xdpi="96"
   inkscape:export-ydpi="96"
   xmlns:inkscape="http://www.inkscape.org/namespaces/inkscape"
   xmlns:sodipodi="http://sodipodi.sourceforge.net/DTD/sodipodi-0.dtd"
   xmlns="http://www.w3.org/2000/svg"
   xmlns:svg="http://www.w3.org/2000/svg"><sodipodi:namedview
     id="namedview1"
     pagecolor="#ffdb00"
     bordercolor="#000000"
     borderopacity="0.25"
     inkscape:showpageshadow="2"
     inkscape:pageopacity="0.0"
     inkscape:pagecheckerboard="0"
     inkscape:deskcolor="#d1d1d1"
     inkscape:document-units="mm"
     inkscape:zoom="1.4589137"
     inkscape:cx="411.2649"
     inkscape:cy="533.95893"
     inkscape:window-width="2560"
     inkscape:window-height="1362"
     inkscape:window-x="2552"
     inkscape:window-y="-8"
     inkscape:window-maximized="1"
     inkscape:current-layer="layer1" /><defs
     id="defs1" /><g
     inkscape:label="Layer 1"
     inkscape:groupmode="layer"
     id="layer1"><path
       style="display:inline;fill:#000000;fill-opacity:1"
       d="M 98.83345,210.81199 C 41.892071,205.33127 17.065164,136.32876 57.518391,95.98324 94.497648,59.102441 158.36525,77.128402 170.51775,127.87612 c 10.73057,44.80988 -26.02186,87.33097 -71.6843,82.93587 z m 15.19364,-1.69371 c 54.25362,-8.27942 76.13433,-73.44985 37.58346,-111.940197 -33.77238,-33.719352 -90.570043,-21.84006 -108.190945,22.628247 -15.677761,39.56458 11.281246,84.58321 53.541859,89.40913 1.382448,0.15787 2.930261,0.33558 3.439586,0.39493 1.934,0.22534 11.09205,-0.10541 13.62604,-0.49211 z m -7.36273,-2.69593 c -0.0782,-0.27178 -0.22419,-2.72657 -0.32451,-5.45508 l -0.18239,-4.96094 0.62752,-0.004 c 0.34514,-0.002 0.8758,-0.0703 1.17924,-0.15175 0.48608,-0.13052 1.46089,10.12687 1.01638,10.69479 -0.32482,0.41501 -2.18998,0.31563 -2.31624,-0.12341 z m -10.966903,-0.27214 c -3.699023,-1.82322 -3.436013,-8.67764 0.395614,-10.31027 2.711302,-1.15527 6.089029,0.27426 6.592169,2.78996 l 0.1632,0.81601 h -1.22369 c -0.67488,0 -1.2237,-0.12405 -1.2237,-0.27661 0,-2.08254 -3.709678,-1.92891 -4.514127,0.18695 -1.363319,3.5858 1.473273,6.83317 3.655873,4.1853 l 0.767774,-0.93144 0.97128,0.40583 c 1.15259,0.48158 1.20748,0.87117 0.27831,1.97542 -1.34668,1.60044 -3.930571,2.11118 -5.862703,1.15885 z m 17.163463,-5.12505 c -0.62574,-2.92418 -1.09558,-5.35395 -1.0441,-5.39948 0.0515,-0.0455 1.64141,-0.40362 3.53319,-0.79575 1.89177,-0.39213 3.64143,-0.77007 3.88813,-0.83985 0.34252,-0.0969 0.49074,0.0981 0.62707,0.82472 0.22547,1.20187 0.41016,1.08231 -2.70868,1.75347 l -2.65716,0.57181 0.26276,1.03517 c 0.15453,0.60881 0.39054,0.98612 0.57303,0.91609 0.6789,-0.26051 4.69707,-1.00453 4.81082,-0.89078 0.0668,0.0668 0.18729,0.52723 0.26778,1.02318 l 0.14633,0.90173 -2.55401,0.50217 -2.55401,0.50217 0.17464,1.07628 c 0.24655,1.5195 0.28196,1.53105 2.91156,0.94975 3.14704,-0.69569 3.218,-0.68966 3.43358,0.29187 0.2351,1.0704 0.22909,1.07338 -3.93173,1.94897 -1.91613,0.40322 -3.60933,0.78084 -3.76268,0.83915 -0.16844,0.0641 -0.72923,-1.99881 -1.41652,-5.21067 z m -29.757069,2.26538 c -5.344232,-1.90494 -3.755202,-10.85502 1.925378,-10.84453 4.022546,0.007 6.359058,3.1502 5.224491,7.02729 -1.012544,3.46011 -3.870751,4.98608 -7.149869,3.81724 z m 3.020241,-2.13029 c 1.477449,-0.76402 2.417849,-3.49099 1.714796,-4.97257 -1.213116,-2.55645 -4.562543,-1.73186 -5.413597,1.33277 -0.765327,2.75593 1.361259,4.84859 3.698801,3.6398 z m 40.958578,-3.16827 c -1.81646,-4.15042 -1.74291,-4.07932 -3.43554,-3.32104 l -1.15338,0.5167 -0.48215,-0.93854 c -0.26518,-0.5162 -0.44377,-0.96368 -0.39687,-0.99442 0.36132,-0.23675 7.62715,-3.33377 7.82128,-3.33377 0.24929,0 0.86295,1.13252 0.86295,1.5926 0,0.13463 -0.59827,0.50215 -1.3295,0.81671 -1.55135,0.66738 -1.57504,0.33416 0.32504,4.57321 2.01462,4.49461 1.93792,4.09861 0.87945,4.54087 -0.50398,0.21057 -1.02803,0.38286 -1.16455,0.38286 -0.13653,0 -1.00356,-1.72583 -1.92673,-3.83518 z m -55.653496,-0.30684 c -2.356561,-1.23705 -3.398906,-3.15075 -2.801748,-5.14388 l 0.309427,-1.03278 1.050995,0.53618 c 0.893563,0.45586 1.02711,0.63135 0.891541,1.1715 -0.370969,1.47806 1.386918,3.15672 2.685909,2.56486 0.967441,-0.44079 0.787946,-1.19543 -0.666298,-2.80126 -3.733316,-4.12245 -0.346793,-8.38702 4.033024,-5.07869 1.734283,1.31001 2.748208,4.93026 1.380819,4.93026 -0.692227,0 -1.949714,-1.19097 -1.931562,-1.82939 0.03564,-1.25366 -1.756909,-2.55029 -2.580617,-1.86668 -0.480491,0.39877 -0.253869,0.83159 1.46229,2.79274 3.148858,3.59837 0.275008,7.914 -3.83378,5.75714 z m 67.135676,-3.60676 -1.34268,-1.90851 -3.32766,-1.32292 c -3.78433,-1.50446 -3.69421,-1.40908 -2.24033,-2.37121 l 1.09063,-0.72175 1.88593,0.84298 c 2.65633,1.18734 2.56641,1.15939 2.43934,0.75809 -0.0627,-0.1981 -0.18642,-1.26445 -0.27489,-2.36966 l -0.16085,-2.00947 1.01372,-0.70251 c 0.55755,-0.38638 1.0793,-0.70251 1.15945,-0.70251 0.0802,0 0.23027,1.62977 0.33359,3.62171 l 0.18785,3.6217 1.30119,1.84689 c 1.38062,1.9596 1.38287,2.08989 0.0497,2.87238 l -0.77231,0.4533 z M 99.607298,193.08906 C 78.624716,190.18038 60.763674,173.68111 56.221974,153.01154 50.031912,124.84016 73.901796,95.151559 103.49886,94.210052 c 32.82071,-1.044054 59.10905,33.000328 48.99221,63.446748 -7.53566,22.67843 -31.08195,38.4545 -52.883772,35.43226 z m 10.325692,-1.32176 c 17.9674,-2.16601 34.8708,-16.03793 40.96365,-33.61719 10.20952,-29.45679 -14.02596,-62.506186 -45.86538,-62.545625 -5.306618,-0.0066 -6.265498,0.08564 -9.921879,0.954184 -24.283114,5.768241 -42.074605,31.095211 -37.983812,54.071621 4.454715,25.02042 28.850853,44.02502 52.807421,41.13701 z m 7.85364,-6.02061 c -1.71964,-1.06196 -1.40586,-1.6994 1.76916,-3.5941 2.877,-1.71686 3.17553,-1.77388 3.72492,-0.71148 1.29316,2.50069 -2.98619,5.85431 -5.49408,4.30558 z m -1.33184,-2.6388 c -2.82692,-4.79161 -8.64765,-14.96673 -8.59108,-15.01792 0.31402,-0.28412 5.42218,-3.03954 5.63244,-3.03822 0.14649,9.2e-4 0.48742,0.38788 0.7576,0.8599 0.64318,1.12365 5.32254,9.55119 6.74226,12.14283 l 1.10887,2.02419 -2.61123,1.61383 c -2.72048,1.68135 -2.84715,1.74035 -3.03886,1.41539 z m 10.60635,-10.53449 c -0.74232,-0.40278 -1.52468,-1.61327 -1.52468,-2.35905 0,-0.23005 -1.72494,-3.39299 -3.8332,-7.02875 -2.10826,-3.63577 -4.07318,-7.08089 -4.36649,-7.65582 -1.1624,-2.2785 -2.96795,-0.14496 -4.328,5.11422 -0.22004,0.85087 -0.43812,1.57781 -0.48463,1.61543 -0.0465,0.0376 -1.54168,0.92275 -3.32262,1.96697 l -3.23806,1.89859 -1.39214,-0.38695 c -2.09401,-0.58202 -4.665681,-0.92129 -9.085031,-1.19854 -7.308408,-0.45849 -8.933832,-1.63349 -13.751118,-9.94046 -1.265832,-2.18281 -3.535761,-6.0672 -5.044287,-8.63196 -7.622549,-12.95972 -7.313343,-18.27752 1.393107,-23.95904 l 2.1569,-1.40752 0.0077,-1.95471 c 0.02055,-5.23941 2.436588,-8.61609 8.844731,-12.36149 7.498413,-4.38263 8.599044,-5.00372 9.984842,-5.63446 8.025466,-3.652783 14.093206,-0.896783 19.457546,8.83772 0.842,1.52797 3.08362,5.45703 4.98136,8.73125 6.87771,11.86629 7.06688,13.44459 2.69547,22.48959 -3.04591,6.30238 -3.33758,7.94741 -1.82325,10.28325 0.2232,0.34428 2.11379,3.73756 4.2013,7.54063 2.08752,3.80306 4.09388,7.21231 4.45859,7.57611 3.16237,3.15451 -1.93883,8.66205 -5.98801,6.46499 z m 3.51411,-2.29931 c 0.9562,-0.57061 1.47205,-1.06187 1.52805,-1.45521 0.11749,-0.82513 -0.20981,-0.75341 -2.2627,0.49582 -2.1958,1.3362 -2.12345,1.26753 -1.65064,1.56655 0.59876,0.37867 0.83335,0.31896 2.38529,-0.60716 z m -1.98405,-3.54121 1.64627,-0.96303 -0.46748,-0.8229 c -0.25711,-0.4526 -1.85707,-3.34995 -3.55546,-6.43855 -1.69839,-3.0886 -3.2019,-5.68604 -3.34113,-5.77209 -0.18887,-0.11673 -2.78404,1.22829 -3.64937,1.8914 -0.15432,0.11825 7.38686,13.0682 7.61005,13.0682 0.061,0 0.85166,-0.43336 1.75712,-0.96303 z m -8.73312,-18.40461 c 1.3858,-0.82888 1.43066,-0.89455 2.11913,-3.10272 0.38684,-1.24076 1.47113,-3.73916 2.40952,-5.55202 4.16353,-8.0434 4.0453,-8.80775 -3.33893,-21.58699 -1.8499,-3.20146 -3.87945,-6.77333 -4.5101,-7.9375 -3.57422,-6.5979 -6.39172,-8.7349 -11.50644,-8.72733 -3.22144,0.005 -3.45354,0.0971 -10.955617,4.35835 -9.36722,5.32067 -12.269185,8.44609 -11.882278,12.79724 l 0.08373,0.94158 2.778125,-1.61108 c 6.550137,-3.79853 9.554853,-4.59146 13.24729,-3.49592 4.52933,1.34385 6.16558,2.97642 10.16577,10.14291 1.1821,2.11778 3.53697,6.25436 5.23305,9.1924 4.83247,8.37106 5.51631,10.61939 4.51143,14.83258 -0.18551,0.77782 -0.0378,0.75524 1.64533,-0.2515 z m -13.04289,18.95946 c -0.98188,-0.68774 -0.72213,-0.97191 2.5895,-2.83296 3.29789,-1.85334 3.69392,-2.0091 3.69997,-1.45521 0.002,0.1819 0.0707,0.58076 0.15277,0.88635 0.12799,0.47676 -0.21987,0.76583 -2.45101,2.03682 -3.26915,1.8623 -3.27726,1.86508 -3.99123,1.365 z m 51.5705,-20.63238 c -2.4437,-2.05624 -1.22561,-7.15027 1.81119,-7.57435 1.10186,-0.15388 1.11601,1.85206 0.0174,2.46955 -1.27685,0.71769 -1.43519,2.77403 -0.26197,3.40192 0.705,0.37731 1.20623,-0.0213 1.45032,-1.15348 0.8423,-3.90673 3.07692,-5.56726 5.22168,-3.88019 2.40063,1.88833 1.16687,7.13962 -1.6774,7.13962 -0.85001,0 -0.71685,-1.80492 0.18627,-2.52505 0.79778,-0.63613 0.93487,-2.0359 0.265,-2.70578 -0.60294,-0.60293 -0.88736,-0.22019 -1.61907,2.1787 -1.01671,3.33329 -3.26685,4.43847 -5.39344,2.64906 z m -115.729952,0.21356 -0.727604,-0.11023 v -2.3306 c 0,-3.93234 0.564616,-5.08784 2.658997,-5.44168 2.326312,-0.39303 3.954406,1.32325 3.955175,4.16941 l 4.11e-4,1.52136 h 1.852083 1.852083 v 1.19062 1.19063 l -4.43177,-0.0397 c -2.437474,-0.0218 -4.759193,-0.0892 -5.159375,-0.14986 z m 3.770312,-3.42768 c 0,-1.19853 -0.522093,-2.20365 -1.144652,-2.20365 -0.714504,0 -1.236598,0.91098 -1.236598,2.15768 v 1.28191 h 1.190625 1.190625 z m 110.23728,-8.73609 c -0.78858,-2.70242 -1.51273,-6.52134 -1.26555,-6.6741 0.39822,-0.24612 9.58431,-2.46936 9.70487,-2.3488 0.0534,0.0534 0.17358,0.57546 0.26707,1.16015 l 0.16999,1.06306 -3.79589,0.8775 c -4.60903,1.06548 -4.27365,0.73731 -3.59412,3.51687 0.62724,2.56565 0.64763,2.45739 -0.5096,2.70514 -0.67355,0.1442 -0.86429,0.0856 -0.97677,-0.29982 z M 48.073377,133.56237 c -5.511669,-1.11771 -5.17714,-0.96747 -4.942234,-2.21963 0.219217,-1.16852 -0.07878,-1.16729 5.676157,-0.0233 2.546615,0.50621 4.665369,0.92083 4.708343,0.92136 0.138238,0.002 -0.268614,1.97965 -0.440955,2.14371 -0.09149,0.0871 -2.342081,-0.28285 -5.001311,-0.82211 z m 1.393456,-7.76357 c -3.244626,-1.51095 -4.134449,-4.42847 -2.277945,-7.46885 0.920962,-1.50826 4.263668,-2.45346 3.901842,-1.1033 -0.08775,0.32742 -0.161163,0.8632 -0.16315,1.19062 -0.0028,0.4605 -0.156129,0.59531 -0.677098,0.59531 -3.091194,0 -2.30078,3.90845 0.987922,4.88509 2.718887,0.80742 4.758235,-1.61287 2.757868,-3.27302 -0.577992,-0.47969 -0.527455,-0.81676 0.256045,-1.70773 1.170942,-1.33156 2.631794,0.63649 2.440057,3.28722 -0.258381,3.57208 -3.650327,5.25955 -7.225541,3.59466 z m 103.714867,-2.82572 -0.48096,-1.06658 0.81528,-0.85165 0.81528,-0.85164 -0.86292,-1.69642 -0.86293,-1.69641 -1.28133,-0.0234 c -1.16522,-0.0213 -2.7416,-1.35155 -2.20523,-1.86096 0.0819,-0.0778 10.28793,-1.20997 10.87417,-1.20633 0.10619,6.7e-4 0.42971,0.46507 0.71894,1.03201 l 0.52588,1.03081 -3.57673,4.12857 c -4.0203,4.64058 -3.82714,4.50854 -4.47945,3.06198 z m 4.51726,-6.81119 c -0.0402,-0.0402 -0.7392,0.005 -1.55327,0.10083 l -1.48014,0.17396 0.54924,1.07661 0.54925,1.07661 1.00402,-1.17744 c 0.55222,-0.6476 0.97112,-1.21035 0.9309,-1.25057 z M 56.008349,112.33185 c -2.202769,-1.6371 -4.006561,-3.03609 -4.008425,-3.10885 -0.0019,-0.0728 0.32083,-0.51569 0.717098,-0.98428 l 0.720486,-0.85199 1.566311,1.18186 c 1.919369,1.44826 1.836908,1.55688 1.223928,-1.61224 l -0.508342,-2.62814 0.74239,-1.0467 c 1.094956,-1.54379 1.229431,-1.44766 1.600982,1.14453 0.442727,3.08876 0.191956,2.89287 4.080004,3.18716 3.991705,0.30215 3.858368,0.22842 2.898672,1.60296 -0.626955,0.89798 -0.873352,1.06126 -1.443236,0.95641 -2.585709,-0.47572 -4.822415,-0.4961 -4.648295,-0.0424 0.09687,0.25244 0.176128,0.6836 0.176128,0.95813 0,0.28478 0.506892,0.87203 1.180306,1.36742 1.348384,0.99193 1.409378,1.1934 0.652573,2.15552 -0.736482,0.93628 -0.44023,1.07269 -4.95058,-2.27943 z m 92.116991,-4.78111 -1.40768,-1.40768 -1.30673,1.1431 c -0.7187,0.6287 -1.38252,1.14309 -1.47516,1.14309 -0.19834,0 -1.44542,-1.38195 -1.45761,-1.61524 -0.008,-0.14591 6.38955,-5.76118 7.41559,-6.5092 0.76077,-0.554633 4.21771,3.8779 4.21771,5.408 0,3.34027 -3.43051,4.39354 -5.98612,1.83793 z m 3.72575,-1.7007 c 0.1506,-0.39245 -0.62842,-1.88096 -1.25775,-2.40326 -0.39015,-0.32379 -2.03813,0.81013 -2.03813,1.40236 0,1.40627 2.81257,2.2604 3.29588,1.0009 z m -86.32793,-4.63621 -3.26018,-3.979137 0.746639,-0.610914 c 0.410651,-0.336003 0.878642,-0.615196 1.03998,-0.620429 0.231103,-0.0075 3.408482,3.644062 5.025901,5.77595 0.243706,0.32122 0.599601,0.13668 2.145927,-1.11269 2.120328,-1.713147 2.233719,-1.745213 2.849279,-0.805749 0.378702,0.577969 0.394619,0.745579 0.09658,1.016989 -0.659372,0.60044 -4.851909,4.01012 -5.119357,4.16344 -0.145521,0.0834 -1.731664,-1.63893 -3.524764,-3.82746 z m 65.16436,-3.27596 c -1.74168,-0.952973 -3.20782,-1.771757 -3.25809,-1.819521 -0.0503,-0.04776 1.01955,-2.107502 2.37739,-4.577197 l 2.4688,-4.490353 0.99604,0.508145 c 1.24013,0.632664 1.32256,0.229812 -0.85603,4.183393 -2.25098,4.084943 -2.27588,3.622735 0.26886,4.991154 l 2.11351,1.136532 -0.43108,0.847843 c -0.2371,0.466314 -0.44946,0.871432 -0.47191,0.900262 -0.0225,0.02883 -1.46582,-0.727286 -3.20749,-1.680258 z M 76.171361,94.101192 c -1.1044,-2.205119 -2.114429,-4.289238 -2.244509,-4.631374 -0.209705,-0.551566 6.378462,-4.461693 6.755015,-4.009152 0.221751,0.2665 0.669181,1.280993 0.669181,1.517286 0,0.153627 -1.073499,0.818466 -2.385553,1.477419 l -2.385554,1.198097 0.407974,0.788933 c 0.496217,0.95958 0.33321,0.960993 2.276002,-0.01973 2.757007,-1.391732 2.743639,-1.390283 3.239127,-0.351233 l 0.435924,0.914142 -2.153433,1.041376 c -2.635375,1.274438 -2.457103,1.067802 -1.910364,2.214326 0.562911,1.180436 0.452002,1.18411 3.005044,-0.09954 2.55945,-1.286866 3.439583,-1.182611 3.439583,0.407431 0,0.121764 -6.766483,3.561319 -7.006024,3.561319 -0.07393,0 -1.038014,-1.804189 -2.142413,-4.009309 z m 43.331509,-0.873764 c -1.64499,-0.483017 -3.05031,-0.937634 -3.12293,-1.010259 -0.0726,-0.07263 0.49724,-2.296744 1.26637,-4.942487 l 1.39842,-4.810442 0.93076,0.170803 c 1.38586,0.254317 1.38512,0.241421 0.24091,4.197822 -1.27633,4.413209 -1.34815,4.166641 1.4311,4.913525 l 2.24714,0.60389 -0.23742,0.827843 c -0.13058,0.455314 -0.23742,0.858395 -0.23742,0.895736 0,0.206543 -1.25303,-0.06423 -3.91693,-0.846431 z M 89.691541,92.773759 c -0.350942,-0.981905 -2.010192,-9.311542 -1.907928,-9.578036 0.14939,-0.389305 4.126674,-1.227665 5.816441,-1.226031 2.098458,0.002 3.271119,1.89659 2.298634,3.713695 -0.223825,0.418222 -0.141178,0.568793 0.491899,0.89617 2.87583,1.48715 1.434258,4.757095 -2.493453,5.655948 -3.974617,0.909587 -4.068577,0.921613 -4.205593,0.538254 z m 3.879191,-2.48056 c 1.188673,-0.210449 1.916103,-0.93526 1.681254,-1.675202 -0.239485,-0.75455 -0.979152,-0.909805 -2.666068,-0.559602 l -1.461592,0.303425 0.175195,0.971736 c 0.228693,1.268475 0.328379,1.415423 0.855564,1.26119 0.242415,-0.07092 0.879456,-0.206617 1.415647,-0.301547 z m -0.578017,-4.456957 c 1.024639,-0.325174 1.360325,-1.168649 0.687371,-1.727151 -0.431852,-0.358405 -3.333205,0.07102 -3.333205,0.493346 0,1.840225 0.297631,1.979016 2.645834,1.233805 z m 16.404165,4.204468 -0.33335,-1.190625 h -1.90981 -1.90981 l -0.47724,1.058333 c -0.45061,0.999284 -0.54143,1.058333 -1.62768,1.058333 -1.45667,0 -1.52302,0.355135 1.01177,-5.415274 l 2.16222,-4.922238 1.21122,0.175575 c 0.66617,0.09657 1.22137,0.190084 1.23377,0.207818 0.0124,0.01774 0.78631,2.227594 1.71979,4.910799 0.93349,2.683205 1.73693,4.975158 1.78544,5.093229 0.0485,0.118071 -0.50157,0.214675 -1.22239,0.214675 h -1.31058 z m -1.14345,-3.412044 c -0.078,-0.203134 -0.28812,-0.857978 -0.46706,-1.455208 -0.41429,-1.382776 -0.55361,-1.363763 -1.11547,0.152236 -0.5154,1.390604 -0.35836,1.661145 0.96835,1.668256 0.53914,0.0029 0.71527,-0.101863 0.61418,-0.365284 z"
       id="path1" /></g></svg>
