<?xml version="1.0" encoding="UTF-8" standalone="no"?>
<!-- Created with Inkscape (http://www.inkscape.org/) -->

<svg
   width="512"
   height="512"
   viewBox="0 0 512 512"
   version="1.1"
   id="svg1"
   inkscape:version="1.3.2 (091e20e, 2023-11-25, custom)"
   sodipodi:docname="website-logo-white.svg"
   xmlns:inkscape="http://www.inkscape.org/namespaces/inkscape"
   xmlns:sodipodi="http://sodipodi.sourceforge.net/DTD/sodipodi-0.dtd"
   xmlns="http://www.w3.org/2000/svg"
   xmlns:svg="http://www.w3.org/2000/svg">
  <sodipodi:namedview
     id="namedview1"
     pagecolor="#ff0000"
     bordercolor="#000000"
     borderopacity="0.25"
     inkscape:showpageshadow="2"
     inkscape:pageopacity="0.0"
     inkscape:pagecheckerboard="0"
     inkscape:deskcolor="#d1d1d1"
     inkscape:document-units="px"
     inkscape:zoom="2.2617188"
     inkscape:cx="256"
     inkscape:cy="256"
     inkscape:window-width="2560"
     inkscape:window-height="1362"
     inkscape:window-x="-8"
     inkscape:window-y="-8"
     inkscape:window-maximized="1"
     inkscape:current-layer="layer1" />
  <defs
     id="defs1" />
  <g
     inkscape:label="Layer 1"
     inkscape:groupmode="layer"
     id="layer1">
    <path
       style="display:inline;fill:#fefefe;stroke-width:3.77953"
       d="M 233.55868,509.0885 C 18.347174,488.37397 -75.486808,227.57708 77.407284,75.090077 217.1714,-64.301918 458.56076,3.8276922 504.49147,195.6301 545.04796,364.99027 406.14113,525.69991 233.55868,509.0885 Z m 57.42478,-6.40142 C 496.03652,471.39478 578.73527,225.08135 433.03119,79.606019 305.38755,-47.837198 90.719214,-2.9390878 24.120534,165.1301 c -59.25453,149.53542 42.63778,319.68458 202.362926,337.92428 5.225,0.59667 11.075,1.26833 13.00001,1.49264 7.30961,0.85168 41.92271,-0.3984 51.49999,-1.85994 z m -27.82764,-10.18934 c -0.29556,-1.0272 -0.84733,-10.30515 -1.22649,-20.61763 l -0.68935,-18.75001 2.37173,-0.0151 c 1.30447,-0.008 3.31011,-0.2657 4.45697,-0.57355 1.83715,-0.4933 5.52147,38.27479 3.84144,40.42126 -1.22767,1.56854 -8.27709,1.19293 -8.7543,-0.46643 z m -41.44971,-1.02856 c -13.98056,-6.89091 -12.98651,-32.79738 1.49523,-38.96795 10.24744,-4.36638 23.01366,1.03657 24.91529,10.54473 l 0.61682,3.08413 h -4.62497 c -2.55073,0 -4.62501,-0.46885 -4.62501,-1.04545 0,-7.87102 -14.02083,-7.29037 -17.06127,0.70658 -5.1527,13.55263 5.56828,25.82615 13.81747,15.81846 l 2.90183,-3.52041 3.67098,1.53385 c 4.35624,1.82014 4.5637,3.29261 1.05188,7.46615 -5.08982,6.04891 -14.8557,7.97927 -22.15825,4.37991 z m 64.86978,-19.37027 c -2.365,-11.05202 -4.14077,-20.2354 -3.9462,-20.40748 0.19464,-0.17197 6.20375,-1.5255 13.35379,-3.00756 7.14999,-1.48207 13.76288,-2.9105 14.69529,-3.17424 1.29456,-0.36623 1.85477,0.37077 2.37003,3.11705 0.85217,4.5425 1.55021,4.09062 -10.23753,6.62729 l -10.04281,2.16117 0.99311,3.91246 c 0.58405,2.30101 1.47605,3.72706 2.16578,3.46238 2.56592,-0.9846 17.75271,-3.79664 18.18263,-3.36672 0.25247,0.25247 0.70787,1.99268 1.01208,3.86713 l 0.55306,3.40812 -9.65295,1.89796 -9.65295,1.89797 0.66005,4.06783 c 0.93184,5.74299 1.06568,5.78664 11.00432,3.5896 11.89433,-2.62938 12.16252,-2.60658 12.97731,1.10314 0.88857,4.0456 0.86586,4.05686 -14.86008,7.36618 -7.24206,1.52398 -13.64156,2.95121 -14.22115,3.17159 -0.63663,0.24227 -2.75615,-7.55456 -5.35378,-19.69387 z m -112.46766,8.56207 c -20.19867,-7.19978 -14.19289,-41.02685 7.27702,-40.9872 15.20332,0.0265 24.03423,11.90626 19.74611,26.55983 -3.82694,13.07758 -14.62961,18.84503 -27.02313,14.42737 z m 11.41508,-8.05149 c 5.58406,-2.88764 9.13833,-13.1943 6.48112,-18.79397 -4.585,-9.66217 -17.24426,-6.54561 -20.46084,5.03724 -2.89257,10.41612 5.14492,18.32538 13.97972,13.75673 z m 154.80408,-11.97457 c -6.86536,-15.68662 -6.58738,-15.4179 -12.98472,-12.55196 l -4.35923,1.95288 -1.8223,-3.54724 c -1.00226,-1.95099 -1.67724,-3.64225 -1.49998,-3.75843 1.36562,-0.89481 28.82702,-12.60008 29.56074,-12.60008 0.9422,0 3.26155,4.28039 3.26155,6.01928 0,0.50883 -2.26118,1.89789 -5.02489,3.08677 -5.86337,2.52239 -5.9529,1.26297 1.2285,17.28458 7.61431,16.9875 7.32442,15.49081 3.32391,17.16234 -1.90481,0.79586 -3.88547,1.44703 -4.40145,1.44703 -0.51602,0 -3.79298,-6.52282 -7.28213,-14.49517 z m -210.34393,-1.15971 c -8.90668,-4.67546 -12.84625,-11.90834 -10.58928,-19.44143 l 1.16949,-3.90342 3.97226,2.0265 c 3.37725,1.72294 3.88199,2.38621 3.36961,4.42772 -1.40209,5.58637 5.24189,11.93091 10.15146,9.69396 3.65647,-1.66598 2.97807,-4.51816 -2.51829,-10.58744 -14.11017,-15.58091 -1.31071,-31.69897 15.24293,-19.19505 6.55477,4.95122 10.38693,18.63405 5.21884,18.63405 -2.61629,0 -7.369,-4.5013 -7.30039,-6.91423 0.1347,-4.73824 -6.64029,-9.63889 -9.75351,-7.05516 -1.81603,1.50716 -0.95951,3.14301 5.52676,10.55523 11.9012,13.60014 1.0394,29.91118 -14.48988,21.75927 z m 253.74114,-13.63185 -5.07469,-7.21326 -12.57698,-5.00002 c -14.30298,-5.68614 -13.96237,-5.32565 -8.46739,-8.96205 l 4.12206,-2.72787 7.12793,3.18606 c 10.03967,4.48759 9.69982,4.38195 9.21955,2.86523 -0.23698,-0.74873 -0.70458,-4.77903 -1.03895,-8.9562 l -0.60794,-7.59485 3.83138,-2.65515 c 2.10728,-1.46034 4.07925,-2.65516 4.38218,-2.65516 0.30311,0 0.87031,6.15976 1.26081,13.68835 l 0.70998,13.68832 4.91789,6.98037 c 5.21809,7.40636 5.22659,7.8988 0.18784,10.85624 l -2.91897,1.71326 z M 236.48346,442.1042 C 157.17921,431.11077 89.672914,368.75132 72.507434,290.63011 49.111924,184.1556 139.32881,71.946715 251.19173,68.388264 375.23851,64.442233 474.59601,193.11391 436.35914,308.187 407.8779,393.90075 318.88405,453.52684 236.48346,442.1042 Z m 39.02624,-4.99563 C 343.41798,428.92208 407.30485,376.49277 430.33295,310.05148 468.92011,198.71873 377.32144,73.807623 256.98348,73.658562 236.92697,73.633612 233.30285,73.98224 219.48346,77.264927 127.70476,99.06615 60.461334,194.79014 75.922594,281.63011 92.759314,376.19548 184.96519,448.02389 275.5097,437.10857 Z m 29.68305,-22.75506 c -6.49943,-4.01371 -5.31349,-6.42293 6.68659,-13.584 10.8737,-6.48892 12.002,-6.70443 14.07844,-2.68906 4.88753,9.45143 -11.28639,22.12653 -20.76503,16.27306 z m -5.03373,-9.97342 c -10.68442,-18.11002 -32.68403,-56.56717 -32.47022,-56.76064 1.18685,-1.07384 20.49328,-11.48802 21.28796,-11.48304 0.55366,0.003 1.84222,1.46601 2.86337,3.25002 2.43092,4.24687 20.11669,36.09899 25.48256,45.89416 l 4.191,7.65048 -9.86921,6.09952 c -10.28213,6.35471 -10.76088,6.5777 -11.48546,5.3495 z m 40.087,-39.81539 c -2.80562,-1.52232 -5.76257,-6.0974 -5.76257,-8.9161 0,-0.86948 -6.51946,-12.8239 -14.48769,-26.56535 -7.96823,-13.74149 -15.3947,-26.76242 -16.50327,-28.93538 -4.39332,-8.61166 -11.21745,-0.54788 -16.35779,19.32933 -0.83165,3.21589 -1.65589,5.96338 -1.83168,6.10556 -0.17575,0.14211 -5.82682,3.48756 -12.55793,7.43422 l -12.23834,7.17577 -5.26163,-1.46248 c -7.91437,-2.19976 -17.63407,-3.48204 -34.33713,-4.52992 -27.62233,-1.73287 -33.76566,-6.17382 -51.97273,-37.57024 -4.78424,-8.24999 -13.3635,-22.93115 -19.06502,-32.62473 -28.80963,-48.98162 -27.64098,-69.08039 5.26529,-90.55385 l 8.15206,-5.31976 0.0291,-7.38788 c 0.0777,-19.8025 9.20916,-32.56475 33.42891,-46.7206 28.34046,-16.564268 32.50032,-18.911695 37.73799,-21.295594 30.33247,-13.805794 53.26566,-3.389416 73.54033,33.402404 3.18236,5.77501 11.65462,20.625 18.82719,33 25.99449,44.84897 26.70946,50.8142 10.1876,85.00003 -11.5121,23.82002 -12.61448,30.03745 -6.89103,38.86582 0.8436,1.30122 7.98913,14.12622 15.87893,28.50002 7.88984,14.37377 15.47294,27.25913 16.85137,28.63412 11.95226,11.92256 -7.32786,32.73846 -22.63185,24.43461 z m 13.28167,-8.69031 c 3.61399,-2.15663 5.56365,-4.01336 5.77531,-5.5 0.44406,-3.11861 -0.79298,-2.84754 -8.55194,1.87396 -8.29909,5.05021 -8.02564,4.79067 -6.23864,5.92082 2.26303,1.43119 3.14967,1.20552 9.01527,-2.29478 z m -7.49877,-13.3841 6.22212,-3.6398 -1.76685,-3.11017 c -0.97176,-1.71061 -7.01885,-12.66123 -13.43796,-24.33468 -6.41911,-11.67345 -12.10167,-21.49054 -12.62789,-21.81577 -0.71384,-0.44119 -10.52236,4.64236 -13.7929,7.1486 -0.58325,0.44693 27.91884,49.39162 28.7624,49.39162 0.23055,0 3.21887,-1.6379 6.64108,-3.6398 z m -33.00707,-69.56073 c 5.23767,-3.13277 5.40722,-3.38098 8.00931,-11.72682 1.46207,-4.68948 5.56018,-14.13225 9.10685,-20.98401 15.73618,-30.40025 15.28932,-33.28913 -12.61958,-81.58862 -6.99175,-12.10001 -14.66249,-25.59999 -17.04605,-30 -13.50886,-24.93695 -24.15768,-33.013797 -43.4889,-32.985186 -12.17553,0.0189 -13.05275,0.366992 -41.40706,16.472506 -35.40367,20.10962 -46.37172,31.92223 -44.9094,48.36752 l 0.31646,3.55873 10.5,-6.08912 c 24.75643,-14.35665 36.11283,-17.35355 50.0685,-13.21293 17.11873,5.07912 23.30298,11.24946 38.42181,38.33541 4.46778,8.00421 13.36807,23.63853 19.77845,34.74293 18.26446,31.63865 20.84905,40.13627 17.05108,56.06014 -0.70114,2.93979 -0.14287,2.85445 6.21857,-0.95055 z m -49.29596,71.6578 c -3.71104,-2.59933 -2.72931,-3.67336 9.78709,-10.70725 12.46446,-7.00475 13.96127,-7.59345 13.98413,-5.5 0.008,0.68749 0.26722,2.19499 0.5774,3.34998 0.48374,1.80193 -0.831,2.89448 -9.26366,7.69822 -12.35584,7.03861 -12.38649,7.04912 -15.08496,5.15905 z m 194.91213,-77.98065 c -9.23603,-7.77161 -4.63223,-27.02464 6.84544,-28.62746 4.16451,-0.5816 4.21799,6.99991 0.0658,9.33373 -4.82589,2.71253 -5.42434,10.48452 -0.99012,12.85765 2.66457,1.42605 4.55898,-0.0805 5.48152,-4.35961 3.1835,-14.76559 11.62931,-21.04161 19.73549,-14.66528 9.07325,7.13699 4.41022,26.98439 -6.33978,26.98439 -3.21264,0 -2.70936,-6.82175 0.70401,-9.5435 3.01523,-2.40427 3.53337,-7.69474 1.00158,-10.22657 -2.27883,-2.27879 -3.35381,-0.83221 -6.11932,8.23446 -3.84269,12.59826 -12.34715,16.77532 -20.38466,10.01219 z m -437.404546,0.80716 -2.75,-0.41662 v -8.80857 c 0,-14.86238 2.13398,-19.22963 10.04975,-20.56698 8.79236,-1.48546 14.94579,5.00126 14.9487,15.7584 l 0.002,5.75003 h 7 7 v 4.49998 4.50002 l -16.75,-0.15005 c -9.2125,-0.0824 -17.9875,-0.33713 -19.5,-0.5664 z m 14.25,-12.95501 c 0,-4.52988 -1.97327,-8.32876 -4.32625,-8.32876 -2.70048,0 -4.67375,3.44308 -4.67375,8.15501 v 4.84502 h 4.5 4.5 z M 452.12831,221.44057 c -2.98046,-10.21387 -5.71741,-24.64759 -4.78318,-25.22495 1.50508,-0.93022 36.22416,-9.33301 36.67982,-8.87735 0.20183,0.20182 0.65605,2.17496 1.0094,4.38482 l 0.64248,4.01786 -14.34667,3.31654 c -17.41995,4.02701 -16.15238,2.78668 -13.58407,13.2921 2.37067,9.69695 2.44773,9.28778 -1.92605,10.22415 -2.5457,0.54501 -3.26661,0.32353 -3.69173,-1.13317 z M 41.709594,217.12144 c -20.83151,-4.22442 -19.56715,-3.65658 -18.67931,-8.38916 0.82853,-4.41645 -0.29776,-4.4118 21.45319,-0.0881 9.625,1.91324 17.63289,3.48031 17.79531,3.48231 0.52247,0.008 -1.01523,7.48214 -1.6666,8.10221 -0.34579,0.3292 -8.85196,-1.06904 -18.90259,-3.10719 z m 5.2666,-29.34263 c -12.26315,-5.71068 -15.62626,-16.73753 -8.60956,-28.22873 3.48081,-5.70051 16.11466,-9.27292 14.74712,-4.16995 -0.33165,1.23749 -0.60912,3.26249 -0.61663,4.49998 -0.0106,1.74048 -0.59009,2.24999 -2.55911,2.24999 -11.68325,0 -8.69586,14.7721 3.73388,18.46334 10.27611,3.05166 17.98388,-6.09589 10.42344,-12.37047 -2.18454,-1.81301 -1.99353,-3.08697 0.96773,-6.45442 4.42561,-5.03266 9.94694,2.40564 9.22226,12.42414 -0.97656,13.50078 -13.79651,19.87862 -27.30913,13.58612 z m 391.993196,-10.67989 -1.8178,-4.03117 3.08137,-3.21883 3.08138,-3.2188 -3.26143,-6.41166 -3.26147,-6.41163 -4.84282,-0.0884 c -4.40398,-0.0805 -10.36195,-5.10822 -8.33473,-7.03355 0.30954,-0.29405 38.88352,-4.57312 41.09923,-4.55936 0.40134,0.002 1.6241,1.75775 2.71725,3.90051 l 1.98758,3.89598 -13.51835,15.60404 c -15.19484,17.5392 -14.46478,17.04015 -16.93021,11.57284 z m 17.07311,-25.74308 c -0.15194,-0.15194 -2.79382,0.0189 -5.87063,0.38109 l -5.59423,0.65749 2.07587,4.06908 2.07591,4.06907 3.79472,-4.45016 c 2.08713,-2.44763 3.67037,-4.57456 3.51836,-4.72657 z M 71.700034,136.8801 c -8.32543,-6.18747 -15.14291,-11.47499 -15.14995,-11.74998 -0.007,-0.27515 1.21258,-1.94907 2.71029,-3.72012 l 2.7231,-3.22012 5.91991,4.46687 c 7.25431,5.47374 6.94265,5.88428 4.62587,-6.0935 l -1.92129,-9.93313 2.80588,-3.95603 c 4.13842,-5.834797 4.64667,-5.471471 6.05096,4.32578 1.6733,11.67406 0.7255,10.93368 15.42049,12.04596 15.086756,1.14199 14.582796,0.86332 10.955606,6.05843 -2.3696,3.39394 -3.30086,4.01106 -5.45475,3.61478 -9.772756,-1.798 -18.226446,-1.87502 -17.568356,-0.16025 0.36612,0.9541 0.66568,2.58368 0.66568,3.62128 0,1.07633 1.91581,3.29586 4.461,5.1682 5.09625,3.74903 5.32678,4.51049 2.46641,8.14685 -2.78355,3.53869 -1.66386,4.05426 -18.71085,-8.61517 z m 348.158706,-18.07034 -5.32036,-5.32036 -4.93883,4.32038 c -2.71634,2.37618 -5.22527,4.32034 -5.5754,4.32034 -0.74964,0 -5.46301,-5.22312 -5.50908,-6.10485 -0.0302,-0.55147 24.14948,-21.774538 28.02743,-24.6017 2.87535,-2.096251 15.94095,14.65663 15.94095,20.43969 0,12.62464 -12.96571,16.6055 -22.62471,6.9465 z m 14.08158,-6.42784 c 0.56919,-1.48328 -2.37513,-7.10914 -4.75371,-9.08319 -1.47458,-1.22377 -7.70316,3.06191 -7.70316,5.30026 0,5.31504 10.63018,8.54325 12.45687,3.78293 z M 107.66152,94.859236 95.339584,79.819978 l 2.82194,-2.308966 c 1.55207,-1.269933 3.320856,-2.325151 3.930636,-2.344929 0.87346,-0.02835 12.88245,13.772833 18.99553,21.830362 0.92109,1.214065 2.26621,0.516586 8.11059,-4.205442 8.01384,-6.474886 8.4424,-6.596081 10.76893,-3.045351 1.43131,2.18445 1.49147,2.817937 0.36502,3.843738 -2.49211,2.26938 -18.33792,15.15636 -19.34875,15.73584 -0.55,0.31521 -6.54487,-6.19438 -13.32194,-14.465994 z m 246.2905,-12.381581 c -6.58273,-3.601788 -12.12405,-6.696405 -12.31404,-6.87693 -0.19011,-0.18051 3.85342,-7.965362 8.98541,-17.299642 l 9.3309,-16.971414 3.76456,1.920548 c 4.6871,2.391172 4.99865,0.868581 -3.23539,15.81125 -8.50764,15.439155 -8.60175,13.692227 1.01616,18.864204 l 7.98807,4.295554 -1.62928,3.204446 c -0.89612,1.762447 -1.69874,3.293601 -1.78359,3.402565 -0.085,0.108964 -5.54011,-2.748797 -12.1228,-6.350581 z M 147.90669,67.976824 c -4.17411,-8.334308 -7.99154,-16.211293 -8.48318,-17.504406 -0.79259,-2.084658 24.10757,-16.863091 25.53076,-15.1527 0.83812,1.007244 2.52919,4.841548 2.52919,5.734624 0,0.580638 -4.05732,3.093415 -9.01626,5.583946 l -9.01627,4.528241 1.54195,2.981794 c 1.87547,3.626759 1.25938,3.632099 8.60221,-0.07457 10.42019,-5.26009 10.36966,-5.254613 12.24237,-1.327495 l 1.64759,3.455025 -8.13896,3.935909 c -9.96047,4.816774 -9.28669,4.035787 -7.22027,8.369106 2.12753,4.461491 1.70835,4.475377 11.35764,-0.376214 9.67351,-4.863745 13,-4.469711 13,1.539897 0,0.46021 -25.57411,13.460103 -26.47946,13.460103 -0.27942,0 -3.9232,-6.818982 -8.09731,-15.153294 z m 163.77264,-3.302415 c -6.21729,-1.825576 -11.52874,-3.543813 -11.8032,-3.818302 -0.2744,-0.274507 1.87933,-8.680607 4.78628,-18.680266 l 5.28536,-18.181199 3.51784,0.64556 c 5.23789,0.96119 5.2351,0.91245 0.91052,15.86578 -4.82392,16.679845 -5.09537,15.747935 5.40888,18.570803 l 8.49313,2.282419 -0.89733,3.128856 c -0.49353,1.720871 -0.89734,3.244327 -0.89734,3.385459 0,0.780634 -4.73586,-0.24276 -14.80414,-3.19911 z M 199.00658,62.959755 c -1.32639,-3.711137 -7.59757,-35.193233 -7.21106,-36.200453 0.56462,-1.47139 15.59688,-4.63999 21.9834,-4.63382 7.93118,0.008 12.36328,7.16822 8.68775,14.036016 -0.84595,1.580682 -0.53359,2.149769 1.85914,3.387099 10.86928,5.620725 5.42082,17.979572 -9.42407,21.376812 -15.02218,3.437809 -15.3773,3.483262 -15.89516,2.034346 z m 14.66151,-9.375345 c 4.49263,-0.795398 7.24197,-3.534841 6.35435,-6.331472 -0.90514,-2.851843 -3.70073,-3.438634 -10.07648,-2.115032 l -5.52412,1.146803 0.66215,3.672704 c 0.86435,4.794236 1.24112,5.34963 3.23363,4.766702 0.91621,-0.268044 3.32393,-0.780915 5.35047,-1.139705 z m -2.18463,-16.845192 c 3.87265,-1.229004 5.14139,-4.416941 2.59794,-6.527816 -1.6322,-1.3546 -12.59794,0.26842 -12.59794,1.864616 0,6.955181 1.1249,7.479745 10,4.6632 z m 62,15.890903 -1.25991,-4.5 h -7.21818 -7.21818 l -1.80374,3.999998 c -1.70309,3.776822 -2.04635,3.999999 -6.15186,3.999999 -5.50553,0 -5.7563,1.342243 3.82401,-20.467177 l 8.17217,-18.603739 4.57784,0.66359 c 2.51781,0.36499 4.6162,0.71843 4.66307,0.78546 0.0469,0.0671 2.97188,8.41925 6.49999,18.560499 3.52815,10.141247 6.56478,18.803747 6.74812,19.25 0.18331,0.446252 -1.89569,0.81137 -4.62005,0.81137 h -4.95338 z m -4.3217,-12.895915 c -0.29481,-0.76775 -1.08896,-3.242751 -1.76527,-5.499999 -1.56582,-5.226235 -2.09238,-5.154375 -4.21595,0.57538 -1.94797,5.255827 -1.35443,6.278344 3.65991,6.30522 2.03769,0.01096 2.70338,-0.384994 2.32131,-1.380601 z"
       id="path1" />
  </g>
</svg>
